<svg width="1220" height="1301" viewBox="0 0 1220 1301" fill="none" xmlns="http://www.w3.org/2000/svg">
<path opacity="0.2" d="M471.559 1026.17L708.863 981.928C708.863 981.928 762.549 1151.32 773.377 1173.23L767.708 1186.52L771.279 1208.77L535.448 1262.4L516.542 1247.49L471.559 1026.17Z" fill="black" fill-opacity="0.7"/>
<path d="M691.623 963.773L462.219 1018.09L516.532 1247.49L745.936 1193.18L691.623 963.773Z" fill="white"/>
<mask id="mask0_901_4934" style="mask-type:luminance" maskUnits="userSpaceOnUse" x="462" y="963" width="284" height="285">
<path d="M691.623 963.773L462.219 1018.09L516.532 1247.49L745.936 1193.18L691.623 963.773Z" fill="white"/>
</mask>
<g mask="url(#mask0_901_4934)">
<path opacity="0.2" d="M706.282 1025.66L744.35 1186.41L525.583 1238.2C499.222 1172.24 479.068 1089.19 479.068 1089.19L706.282 1025.66Z" fill="black" fill-opacity="0.7"/>
</g>
<path d="M691.623 963.773L462.219 1018.09L516.532 1247.49L745.936 1193.18L691.623 963.773Z" stroke="#263238" stroke-linecap="round" stroke-linejoin="round"/>
<path d="M753.109 1178.56C695.767 1192.13 614.559 1204.89 565.579 1212.09C540.068 1215.83 523.061 1218.04 523.061 1218.04C501.349 1178.36 462.176 1018.1 462.176 1018.1L691.572 963.787C692.026 965.743 692.423 967.699 692.848 969.626C720.201 1093.58 753.109 1178.56 753.109 1178.56Z" fill="white"/>
<mask id="mask1_901_4934" style="mask-type:luminance" maskUnits="userSpaceOnUse" x="462" y="963" width="292" height="256">
<path d="M753.109 1178.56C695.767 1192.13 614.559 1204.89 565.579 1212.09C540.068 1215.83 523.061 1218.04 523.061 1218.04C501.349 1178.36 462.176 1018.1 462.176 1018.1L691.572 963.787C692.026 965.743 692.423 967.699 692.848 969.626C720.201 1093.58 753.109 1178.56 753.109 1178.56Z" fill="white"/>
</mask>
<g mask="url(#mask1_901_4934)">
<path opacity="0.4" d="M753.109 1178.56C695.767 1192.13 614.559 1204.89 565.578 1212.09C528.73 1187.63 519.914 1163.65 520.368 1140.77C520.85 1113.62 639.162 1140.15 663.879 1113.25C681.51 1094.06 680.886 1012.63 692.904 969.626C720.201 1093.58 753.109 1178.56 753.109 1178.56Z" fill="white"/>
</g>
<path d="M753.109 1178.56C695.767 1192.13 614.559 1204.89 565.579 1212.09C540.068 1215.83 523.061 1218.04 523.061 1218.04C501.349 1178.36 462.176 1018.1 462.176 1018.1L691.572 963.787C692.026 965.743 692.423 967.699 692.848 969.626C720.201 1093.58 753.109 1178.56 753.109 1178.56Z" stroke="#263238" stroke-linecap="round" stroke-linejoin="round"/>
<path d="M500.951 1052.79C504.063 1049.16 507.797 1046.12 511.977 1043.81L515.379 1052.54L527.255 1048.23C531.224 1046.78 535.759 1044.91 537.148 1040.97C539.33 1046.16 546.87 1045.28 552.227 1043.58C589.319 1031.64 627.206 1022.33 665.608 1015.72" stroke="#263238" stroke-linecap="round" stroke-linejoin="round"/>
<path d="M506.706 1084.54C504.24 1083.26 506.281 1078.87 509.059 1079.04C511.837 1079.21 513.622 1082.27 513.849 1085.05C515.078 1084.91 516.233 1084.39 517.149 1083.56C518.065 1082.73 518.696 1081.64 518.951 1080.43L522.891 1083.26C522.563 1082.77 522.339 1082.22 522.232 1081.64C522.125 1081.06 522.137 1080.47 522.269 1079.9C522.401 1079.32 522.648 1078.78 522.997 1078.31C523.345 1077.83 523.787 1077.44 524.296 1077.14C524.804 1076.84 525.368 1076.65 525.952 1076.58C526.536 1076.51 527.129 1076.56 527.693 1076.73C528.257 1076.9 528.781 1077.18 529.233 1077.56C529.684 1077.93 530.053 1078.4 530.318 1078.92C530.034 1075.69 531.281 1071.04 534.428 1071.78C535.408 1072.19 536.303 1072.77 537.064 1073.51C538.024 1074.1 539.109 1074.45 540.23 1074.53C541.352 1074.62 542.477 1074.44 543.516 1074.01C544.555 1073.58 545.477 1072.91 546.208 1072.05C546.939 1071.2 547.457 1070.18 547.722 1069.09C550.811 1072.6 556.225 1072.12 560.959 1071.33L602.229 1064.3C602.626 1061.69 603.93 1058.35 606.538 1058.63C608.04 1058.86 609.032 1060.3 610.336 1061.1C612.345 1061.94 614.592 1062.02 616.657 1061.32C635.248 1057.29 653.492 1051.81 671.221 1044.91" stroke="#263238" stroke-linecap="round" stroke-linejoin="round"/>
<path d="M520.936 1120.68C526.449 1121.16 532 1120.39 537.177 1118.44C536.261 1116.5 536.029 1114.31 536.518 1112.23C537.007 1110.14 538.189 1108.28 539.87 1106.96L544.859 1110.16C564.948 1109.68 584.917 1106.93 604.383 1101.94C613.085 1099.73 621.702 1097.04 630.291 1094.34L679.214 1079.09" stroke="#263238" stroke-linecap="round" stroke-linejoin="round"/>
<path opacity="0.2" d="M900.023 115.873L895.459 116.157C893.357 116.401 891.237 115.882 889.484 114.697C887.732 113.511 886.462 111.736 885.907 109.694C878.934 84.3252 853.423 70.0676 823.973 71.9101C797.385 73.5541 769.352 90.3343 753.11 113.521C751.114 116.56 748.471 119.12 745.368 121.016C742.266 122.913 738.783 124.099 735.168 124.49L712.492 125.907C709.395 126.193 706.289 125.478 703.63 123.865C700.972 122.252 698.901 119.828 697.724 116.95C688.568 95.3231 665.354 81.7458 638.738 83.3898C609.231 85.2039 578.731 102.92 563.567 129.677C562.368 131.831 560.668 133.664 558.61 135.021C556.553 136.377 554.198 137.218 551.747 137.472L547.183 137.756C546.113 137.873 545.109 138.335 544.322 139.071C543.535 139.806 543.008 140.777 542.818 141.837L541.032 153.175C540.923 153.556 540.894 153.954 540.948 154.346C541.003 154.738 541.138 155.115 541.346 155.451C541.555 155.787 541.831 156.077 542.158 156.3C542.484 156.523 542.854 156.675 543.243 156.747L548.742 158.419C550.875 159.054 552.72 160.41 553.961 162.257C555.203 164.103 555.763 166.324 555.545 168.538C553.618 204.848 579.242 231.521 615.722 229.282C650.898 227.099 684.373 198.697 695.315 163.691C696.239 160.857 697.852 158.297 700.009 156.239C702.165 154.181 704.799 152.69 707.673 151.9C715.471 149.845 723.585 149.268 731.596 150.199C734.148 150.497 736.495 151.743 738.171 153.692C739.846 155.64 740.727 158.147 740.638 160.715C740.638 195.154 765.667 219.985 800.9 217.802C837.437 215.591 872.074 185.29 881.768 148.442C882.466 145.891 883.749 143.538 885.516 141.57C887.282 139.601 889.483 138.072 891.944 137.104L898.095 134.751C898.954 134.458 899.72 133.941 900.313 133.254C900.906 132.566 901.305 131.733 901.468 130.839L903.282 119.501C903.43 119.032 903.452 118.532 903.348 118.051C903.243 117.57 903.015 117.125 902.686 116.758C902.357 116.392 901.939 116.118 901.472 115.963C901.005 115.808 900.505 115.777 900.023 115.873ZM617.281 219.701C583.267 221.799 560.279 195.098 565.778 160.177C571.277 125.255 603.363 94.9829 637.292 93.0271C671.221 91.0713 694.294 117.631 688.767 152.552C683.24 187.473 651.21 217.604 617.281 219.701ZM698.886 145.182C699.018 143.292 699.075 141.337 699.056 139.315C699.091 138.507 699.413 137.738 699.963 137.146C700.514 136.553 701.257 136.177 702.061 136.083L742.651 133.589C743.003 133.555 743.358 133.614 743.681 133.759C744.004 133.905 744.283 134.131 744.492 134.417C744.701 134.703 744.831 135.038 744.871 135.39C744.911 135.742 744.859 136.098 744.72 136.423C744.096 138.379 743.529 140.335 743.019 142.319C725.559 137.245 708.127 141.809 698.886 145.182ZM802.402 208.221C768.388 210.319 745.4 183.618 750.928 148.697C756.455 113.776 788.485 83.5032 822.414 81.5474C856.343 79.5916 879.416 106.151 873.917 141.072C868.418 175.993 836.416 206.124 802.402 208.221Z" fill="black" fill-opacity="0.7"/>
<path d="M870.911 122.931L610.817 157.455C604.675 158.271 598.773 160.365 593.49 163.602C588.208 166.838 583.662 171.147 580.147 176.248L542.08 231.634C541.731 232.149 541.502 232.736 541.412 233.351C541.321 233.967 541.37 234.595 541.555 235.188C541.74 235.782 542.057 236.326 542.481 236.781C542.906 237.236 543.427 237.588 544.007 237.814C546.557 238.794 549.363 238.886 551.971 238.073C554.579 237.26 556.837 235.591 558.378 233.335L593.583 182.314C595.677 179.26 598.384 176.674 601.532 174.722C604.679 172.77 608.198 171.495 611.865 170.976L871.846 134.127L870.911 122.931Z" fill="#263238"/>
<path d="M520.027 144.814L782.332 140.477C788.536 140.39 794.688 141.606 800.391 144.047C806.094 146.489 811.221 150.101 815.439 154.649L861.302 203.8C861.725 204.255 862.039 204.8 862.221 205.394C862.403 205.988 862.447 206.615 862.352 207.229C862.257 207.843 862.023 208.427 861.669 208.938C861.316 209.448 860.851 209.872 860.31 210.177C857.936 211.53 855.176 212.042 852.475 211.631C849.774 211.219 847.291 209.908 845.429 207.91L803.053 162.558C800.517 159.84 797.444 157.68 794.028 156.216C790.611 154.752 786.928 154.016 783.211 154.054L520.623 156.038L520.027 144.814Z" fill="#263238"/>
<path d="M679.015 161.509C682.247 162.104 682.105 184.185 674.792 191.64C667.479 199.094 659.996 180.954 661.895 174.434C663.794 167.915 668.896 159.581 679.015 161.509Z" fill="white" stroke="#263238" stroke-linecap="round" stroke-linejoin="round"/>
<path d="M724.595 158.674C721.477 159.695 724.34 181.35 732.503 188.068C740.666 194.786 745.882 175.625 743.189 169.417C740.496 163.21 734.374 155.528 724.595 158.674Z" fill="white" stroke="#263238" stroke-linecap="round" stroke-linejoin="round"/>
<path opacity="0.5" d="M562.092 109.836C575.811 98.101 604.865 78.1178 636.668 97.1373C668.471 116.157 679.441 136.82 672.921 164.797C666.402 192.773 646.362 230.189 599.224 223.67C552.086 217.15 519.489 146.288 562.092 109.836Z" fill="white"/>
<path opacity="0.5" d="M747.553 100.794C761.272 89.0589 790.298 69.0473 822.101 88.0668C853.904 107.086 864.902 127.75 858.354 155.726C851.806 183.703 831.823 221.118 784.657 214.599C737.491 208.08 704.922 137.104 747.553 100.794Z" fill="white"/>
<path d="M876.325 118.963L871.762 119.246C869.501 119.396 867.246 118.882 865.273 117.77C863.299 116.657 861.693 114.993 860.65 112.982C848.008 88.3785 819.068 74.6028 789.561 76.4168C776.529 77.2668 763.93 81.4376 752.966 88.5326C742.001 95.6275 733.034 105.41 726.918 116.95C725.451 119.951 723.224 122.515 720.46 124.389C717.695 126.264 714.489 127.383 711.159 127.636L688.483 129.025C685.139 129.201 681.808 128.495 678.823 126.978C675.838 125.46 673.304 123.185 671.476 120.38C663.981 109.683 653.873 101.082 642.114 95.3963C630.355 89.7104 617.337 87.1286 604.298 87.8966C574.791 89.739 547.778 106.973 538.282 132.965C537.492 135.087 536.101 136.933 534.279 138.278C532.457 139.622 530.282 140.406 528.021 140.533L523.458 140.817C522.462 140.882 521.533 141.34 520.875 142.089C520.216 142.838 519.881 143.818 519.943 144.813L520.623 155.896C520.681 156.725 521.009 157.512 521.557 158.137C522.104 158.761 522.842 159.189 523.656 159.354L529.609 160.942C531.917 161.526 534.01 162.761 535.638 164.499C537.266 166.238 538.361 168.407 538.792 170.749C541.496 187.842 550.36 203.355 563.715 214.362C577.069 225.369 593.989 231.108 611.284 230.498C628.578 229.888 645.052 222.97 657.597 211.05C670.142 199.129 677.892 183.03 679.384 165.789C679.694 163.112 680.813 160.593 682.59 158.568C684.367 156.543 686.719 155.106 689.333 154.451C697.112 152.397 705.208 151.82 713.199 152.75C715.902 153.097 718.435 154.26 720.461 156.083C722.487 157.906 723.909 160.303 724.537 162.954C728.064 179.965 737.716 195.089 751.66 205.45C765.605 215.812 782.87 220.69 800.175 219.158C817.48 217.626 833.619 209.79 845.526 197.14C857.433 184.489 864.278 167.905 864.76 150.539C864.888 148.17 865.693 145.888 867.08 143.964C868.467 142.039 870.377 140.554 872.584 139.683L878.253 137.359C879.038 137.094 879.716 136.579 880.181 135.893C880.647 135.208 880.876 134.388 880.832 133.56L880.123 122.478C880.072 121.513 879.647 120.606 878.937 119.95C878.228 119.293 877.291 118.939 876.325 118.963ZM612.489 220.24C600.319 220.997 588.198 218.128 577.66 211.993C567.122 205.859 558.64 196.736 553.289 185.779C547.938 174.823 545.957 162.525 547.599 150.442C549.24 138.359 554.429 127.035 562.509 117.903C570.589 108.771 581.197 102.241 592.99 99.1402C604.783 96.0394 617.23 96.5069 628.757 100.484C640.284 104.46 650.372 111.768 657.744 121.48C665.116 131.193 669.441 142.874 670.172 155.046C671.126 171.33 665.594 187.33 654.785 199.547C643.976 211.764 628.769 219.204 612.489 220.24ZM678.817 147.79C678.505 145.862 678.137 143.963 677.683 142.121C677.595 141.756 677.589 141.376 677.664 141.009C677.74 140.641 677.895 140.295 678.12 139.995C678.345 139.694 678.633 139.447 678.964 139.271C679.295 139.094 679.661 138.993 680.036 138.974L720.626 136.452C721.009 136.406 721.398 136.448 721.762 136.574C722.127 136.701 722.458 136.908 722.731 137.181C723.004 137.454 723.211 137.785 723.338 138.15C723.464 138.514 723.506 138.903 723.46 139.286C723.262 141.157 723.12 143.084 723.035 144.955C708.386 141.306 692.964 142.296 678.902 147.79H678.817ZM797.696 208.76C785.526 209.518 773.405 206.648 762.866 200.514C752.328 194.379 743.847 185.256 738.495 174.3C733.144 163.343 731.164 151.045 732.805 138.962C734.447 126.88 739.636 115.556 747.716 106.423C755.796 97.2911 766.403 90.7613 778.196 87.6605C789.989 84.5597 802.437 85.0272 813.964 89.0039C825.491 92.9807 835.579 100.288 842.951 110C850.323 119.713 854.648 131.395 855.378 143.566C856.341 159.839 850.823 175.83 840.03 188.047C829.238 200.263 814.048 207.71 797.781 208.76H797.696Z" fill="#757575" stroke="#263238" stroke-linecap="round" stroke-linejoin="round"/>
<path opacity="0.4" d="M567.137 198.442C567.137 198.442 544.461 168.425 560.447 133.561C574.875 102.211 608.634 98.6394 624.649 105.215L589.813 166.214C593.017 151.315 597.816 136.803 604.127 122.931C604.127 122.931 573.344 154.111 567.137 198.442Z" fill="white"/>
<path opacity="0.4" d="M751.89 185.29C751.89 185.29 729.214 155.301 745.201 120.437C759.629 89.0587 793.388 85.4872 809.374 92.0916L774.425 152.977C777.061 131.123 788.881 109.751 788.881 109.751C788.881 109.751 758.07 140.902 751.89 185.29Z" fill="white"/>
<path opacity="0.2" d="M86.972 714.889L95.1921 751.823L104.574 710.014L79.9141 292.406H63.1055L86.972 714.889Z" fill="black" fill-opacity="0.7"/>
<path d="M71.9498 287.333L95.1928 707.406L86.6892 741.959L74.3875 708.568L51.0879 288.466C51.0339 287.767 51.1202 287.064 51.3415 286.398C51.5628 285.732 51.9148 285.117 52.3767 284.589C52.8387 284.061 53.4014 283.631 54.0318 283.323C54.6623 283.016 55.3478 282.837 56.0482 282.797L66.3942 282.23C67.0959 282.192 67.7982 282.295 68.4597 282.532C69.1212 282.769 69.7287 283.136 70.2463 283.612C70.7639 284.087 71.1812 284.661 71.4738 285.3C71.7663 285.939 71.9282 286.63 71.9498 287.333Z" fill="white"/>
<mask id="mask2_901_4934" style="mask-type:luminance" maskUnits="userSpaceOnUse" x="51" y="282" width="45" height="460">
<path d="M71.9498 287.333L95.1928 707.406L86.6892 741.959L74.3875 708.568L51.0879 288.466C51.0339 287.767 51.1202 287.064 51.3415 286.398C51.5628 285.732 51.9148 285.117 52.3767 284.589C52.8387 284.061 53.4014 283.631 54.0318 283.323C54.6623 283.016 55.3478 282.837 56.0482 282.797L66.3942 282.23C67.0959 282.192 67.7982 282.295 68.4597 282.532C69.1212 282.769 69.7287 283.136 70.2463 283.612C70.7639 284.087 71.1812 284.661 71.4738 285.3C71.7663 285.939 71.9282 286.63 71.9498 287.333Z" fill="white"/>
</mask>
<g mask="url(#mask2_901_4934)">
<path opacity="0.2" d="M86.6326 741.959L74.3308 708.568L51.0879 288.466C51.0339 287.767 51.1202 287.064 51.3415 286.398C51.5628 285.732 51.9148 285.117 52.3767 284.589C52.8387 284.061 53.4014 283.631 54.0318 283.323C54.6623 283.016 55.3478 282.837 56.0482 282.797H57.4938L80.9069 705.961L86.6326 741.959Z" fill="black" fill-opacity="0.7"/>
</g>
<path d="M71.9498 287.333L95.1928 707.406L86.6892 741.959L74.3875 708.568L51.0879 288.466C51.0339 287.767 51.1202 287.064 51.3415 286.398C51.5628 285.732 51.9148 285.117 52.3767 284.589C52.8387 284.061 53.4014 283.631 54.0318 283.323C54.6623 283.016 55.3478 282.837 56.0482 282.797L66.3942 282.23C67.0959 282.192 67.7982 282.295 68.4597 282.532C69.1212 282.769 69.7287 283.136 70.2463 283.612C70.7639 284.087 71.1812 284.661 71.4738 285.3C71.7663 285.939 71.9282 286.63 71.9498 287.333Z" stroke="#263238" stroke-linecap="round" stroke-linejoin="round"/>
<path d="M57.8906 290.167L80.5667 702.559C80.592 703.028 80.7097 703.488 80.913 703.912C81.1164 704.335 81.4013 704.715 81.7515 705.028C82.1017 705.342 82.5104 705.583 82.9539 705.738C83.3975 705.893 83.8674 705.959 84.3366 705.932H86.8309" fill="white"/>
<path d="M57.8906 290.167L80.5667 702.559C80.592 703.028 80.7097 703.488 80.913 703.912C81.1164 704.335 81.4013 704.715 81.7515 705.028C82.1017 705.342 82.5104 705.583 82.9539 705.738C83.3975 705.893 83.8674 705.959 84.3366 705.932H86.8309" stroke="#263238" stroke-linecap="round" stroke-linejoin="round"/>
<path opacity="0.2" d="M161.097 793.179L237.94 291.103C240.308 275.667 248.709 261.804 261.296 252.561C273.882 243.317 289.624 239.451 305.061 241.811L1042.91 354.766C1050.56 355.931 1057.9 358.592 1064.51 362.595C1071.13 366.598 1076.89 371.865 1081.47 378.095C1086.05 384.326 1089.36 391.397 1091.2 398.906C1093.05 406.415 1093.4 414.214 1092.23 421.858L1015.36 923.934C1014.2 931.583 1011.54 938.928 1007.54 945.549C1003.54 952.17 998.277 957.937 992.046 962.52C985.814 967.104 978.74 970.414 971.228 972.26C963.716 974.107 955.913 974.455 948.267 973.283L210.389 860.3C194.953 857.931 181.09 849.531 171.847 836.944C162.603 824.357 158.737 808.615 161.097 793.179Z" fill="black" fill-opacity="0.7"/>
<path d="M220.313 309.992L226.148 271.858C226.262 271.115 226.666 270.448 227.272 270.003C227.878 269.558 228.636 269.372 229.379 269.485L245.462 271.946L238.773 315.656L222.691 313.195C221.952 313.082 221.288 312.682 220.843 312.082C220.398 311.483 220.208 310.732 220.313 309.992Z" fill="#00598E" stroke="#263238" stroke-linecap="round" stroke-linejoin="round"/>
<path d="M320.215 229.677L358.349 235.513C359.092 235.626 359.76 236.031 360.205 236.637C360.65 237.242 360.836 238 360.722 238.743L358.261 254.826L314.552 248.138L317.013 232.055C317.126 231.317 317.525 230.653 318.125 230.207C318.725 229.762 319.476 229.572 320.215 229.677Z" fill="#00598E" stroke="#263238" stroke-linecap="round" stroke-linejoin="round"/>
<path d="M372.188 237.615L410.322 243.45C411.065 243.564 411.732 243.968 412.177 244.574C412.622 245.18 412.809 245.938 412.695 246.681L410.234 262.764L366.524 256.075L368.985 239.993C369.098 239.254 369.498 238.59 370.098 238.145C370.697 237.7 371.449 237.51 372.188 237.615Z" fill="#00598E" stroke="#263238" stroke-linecap="round" stroke-linejoin="round"/>
<path d="M152.593 781.84L229.436 279.764C231.804 264.329 240.205 250.466 252.792 241.222C265.378 231.979 281.121 228.112 296.557 230.472L1034.41 343.427C1042.05 344.593 1049.39 347.254 1056.01 351.257C1062.62 355.26 1068.39 360.527 1072.97 366.757C1077.55 372.988 1080.85 380.059 1082.7 387.568C1084.55 395.077 1084.9 402.876 1083.73 410.52L1006.86 912.596C1005.7 920.245 1003.04 927.589 999.041 934.21C995.04 940.831 989.773 946.599 983.542 951.182C977.31 955.766 970.236 959.075 962.724 960.922C955.212 962.769 947.41 963.117 939.763 961.945L201.885 848.962C186.449 846.593 172.586 838.192 163.343 825.606C154.099 813.019 150.233 797.277 152.593 781.84Z" fill="#00598E" stroke="#263238" stroke-linecap="round" stroke-linejoin="round"/>
<path d="M942.655 955.681L200.978 842.159C194.438 841.162 188.159 838.887 182.499 835.463C176.84 832.038 171.91 827.532 167.993 822.201C164.076 816.87 161.248 810.82 159.671 804.395C158.093 797.971 157.798 791.299 158.801 784.76L236.239 278.829C238.259 265.625 245.44 253.763 256.204 245.854C266.968 237.944 280.434 234.634 293.638 236.652L1035.34 350.174C1048.55 352.207 1060.4 359.396 1068.31 370.162C1076.22 380.929 1079.53 394.394 1077.52 407.601L1000.08 913.503C999.082 920.044 996.804 926.324 993.376 931.984C989.949 937.644 985.44 942.573 980.107 946.49C974.774 950.407 968.721 953.234 962.295 954.811C955.869 956.388 949.195 956.684 942.655 955.681Z" fill="#757575" stroke="#263238" stroke-linecap="round" stroke-linejoin="round"/>
<path d="M209.991 533.708C209.897 534.256 209.644 534.765 209.262 535.17C208.881 535.576 208.389 535.86 207.847 535.987C207.305 536.115 206.738 536.08 206.216 535.887C205.694 535.694 205.24 535.352 204.911 534.903C204.582 534.455 204.393 533.919 204.366 533.363C204.34 532.807 204.478 532.256 204.763 531.778C205.047 531.299 205.467 530.916 205.968 530.674C206.469 530.433 207.031 530.344 207.582 530.42C207.959 530.471 208.322 530.598 208.648 530.793C208.975 530.987 209.259 531.246 209.484 531.553C209.709 531.859 209.87 532.208 209.957 532.579C210.044 532.949 210.056 533.333 209.991 533.708Z" fill="#999999" stroke="#263238" stroke-linecap="round" stroke-linejoin="round"/>
<path d="M208.603 560.097C208.318 561.485 207.51 562.711 206.346 563.52C205.183 564.329 203.753 564.661 202.352 564.446C200.951 564.232 199.686 563.487 198.819 562.366C197.951 561.246 197.547 559.835 197.69 558.425C197.976 557.037 198.784 555.811 199.947 555.002C201.111 554.192 202.541 553.861 203.941 554.076C205.342 554.29 206.607 555.035 207.475 556.155C208.342 557.276 208.746 558.687 208.603 560.097Z" fill="#263238"/>
<path d="M218.326 496.576C218.04 497.964 217.232 499.189 216.069 499.999C214.906 500.808 213.476 501.14 212.075 500.925C210.674 500.71 209.409 499.966 208.541 498.845C207.674 497.725 207.27 496.313 207.413 494.903C207.489 494.158 207.715 493.435 208.079 492.78C208.443 492.124 208.936 491.55 209.528 491.091C210.121 490.632 210.801 490.299 211.527 490.111C212.252 489.923 213.008 489.885 213.749 489.998C214.49 490.112 215.2 490.375 215.836 490.771C216.472 491.168 217.021 491.69 217.449 492.305C217.877 492.92 218.176 493.616 218.326 494.35C218.477 495.084 218.477 495.842 218.326 496.576Z" fill="#263238"/>
<path d="M204.323 577.926C204.202 578.713 203.851 579.446 203.313 580.032C202.776 580.619 202.076 581.033 201.304 581.223C200.531 581.412 199.719 581.368 198.971 581.097C198.223 580.825 197.573 580.338 197.101 579.696C196.63 579.055 196.36 578.289 196.324 577.494C196.289 576.699 196.49 575.911 196.901 575.23C197.313 574.549 197.918 574.006 198.638 573.668C199.359 573.331 200.164 573.215 200.95 573.334C201.474 573.414 201.976 573.596 202.429 573.87C202.882 574.144 203.276 574.504 203.589 574.931C203.902 575.357 204.129 575.841 204.255 576.355C204.381 576.869 204.404 577.403 204.323 577.926Z" fill="#263238"/>
<path d="M1058.9 398.899L979.73 916.253C978.731 922.773 975.184 928.629 969.869 932.536C964.554 936.442 957.906 938.079 951.385 937.086L330.033 841.989L316.569 840.061L265.916 832.295L241.398 828.553L205.967 823.054L198.228 821.864C191.708 820.864 185.852 817.318 181.945 812.003C178.039 806.688 176.402 800.039 177.395 793.518L256.591 275.995C257.082 272.765 258.205 269.665 259.896 266.871C261.588 264.076 263.814 261.643 266.447 259.711C269.08 257.778 272.068 256.384 275.241 255.608C278.414 254.832 281.708 254.69 284.936 255.189L516.884 290.677L551.975 296.063L585.507 301.193L628.591 307.769L644.181 310.15L1038.18 370.44C1041.41 370.948 1044.5 372.086 1047.29 373.791C1050.08 375.496 1052.51 377.734 1054.43 380.377C1056.36 383.02 1057.74 386.016 1058.51 389.194C1059.27 392.372 1059.41 395.669 1058.9 398.899Z" fill="#263238"/>
<g opacity="0.1">
<path d="M476.435 837.227L212.826 796.891C211.113 796.626 209.576 795.692 208.55 794.295C207.525 792.897 207.095 791.15 207.356 789.437L233.518 618.431C233.79 616.716 234.73 615.178 236.132 614.153C237.534 613.128 239.284 612.699 241.001 612.96L504.61 653.295C505.46 653.423 506.276 653.718 507.012 654.162C507.747 654.607 508.387 655.192 508.896 655.885C509.404 656.578 509.771 657.364 509.974 658.199C510.177 659.034 510.214 659.901 510.081 660.75L483.918 831.756C483.787 832.607 483.489 833.424 483.042 834.159C482.595 834.895 482.007 835.535 481.311 836.043C480.616 836.551 479.828 836.918 478.991 837.121C478.155 837.324 477.286 837.36 476.435 837.227ZM240.746 615.228C240.193 615.144 239.629 615.169 239.086 615.303C238.543 615.437 238.032 615.676 237.582 616.008C237.131 616.34 236.751 616.757 236.462 617.236C236.174 617.715 235.982 618.246 235.899 618.8L209.737 789.777C209.652 790.33 209.678 790.894 209.811 791.437C209.945 791.98 210.185 792.491 210.517 792.941C210.848 793.392 211.266 793.772 211.745 794.061C212.224 794.349 212.755 794.541 213.308 794.624L476.775 834.959C477.328 835.043 477.892 835.018 478.435 834.884C478.978 834.75 479.49 834.511 479.94 834.179C480.39 833.847 480.771 833.43 481.059 832.951C481.348 832.472 481.539 831.941 481.622 831.387L507.813 660.41C507.977 659.291 507.694 658.153 507.026 657.241C506.358 656.329 505.358 655.716 504.242 655.535L240.746 615.228Z" fill="#00598E"/>
</g>
<path opacity="0.4" d="M320.254 718.716L379.268 752.192C385.517 740.732 388.421 727.747 387.649 714.717C386.878 701.687 382.461 689.136 374.903 678.494L320.254 718.716Z" fill="#00598E"/>
<path opacity="0.6" d="M320.82 715.343L373.542 676.595C366.417 667.209 357.025 659.787 346.246 655.025L335.843 679.685L320.82 715.343Z" fill="#00598E"/>
<path d="M329.807 650.149L320.68 709.674L344.149 654.033C339.52 652.234 334.712 650.932 329.807 650.149Z" fill="#00598E"/>
<path opacity="0.1" d="M317.136 718.007L327.539 649.979C315.592 648.347 303.425 649.846 292.232 654.332C281.039 658.817 271.203 666.134 263.69 675.566C256.176 684.997 251.242 696.219 249.372 708.131C247.501 720.044 248.758 732.238 253.02 743.518L317.136 718.007Z" fill="#00598E"/>
<path opacity="0.2" d="M307.612 787.623C321.366 789.726 335.435 787.661 348.005 781.695C360.574 775.728 371.069 766.134 378.135 754.147L318.072 720.133L253.842 745.502C258.427 756.553 265.785 766.235 275.204 773.614C284.622 780.992 295.785 785.817 307.612 787.623Z" fill="#00598E"/>
<path d="M427.571 677.776L419.753 676.58C418.779 676.431 417.867 677.1 417.718 678.075L416.522 685.893C416.373 686.867 417.042 687.779 418.017 687.928L425.834 689.124C426.809 689.273 427.72 688.604 427.87 687.629L429.066 679.812C429.215 678.837 428.546 677.926 427.571 677.776Z" fill="#00598E"/>
<path d="M470.058 688.557L435.902 683.313C435.73 683.289 435.564 683.23 435.415 683.141C435.266 683.052 435.136 682.934 435.033 682.794C434.93 682.655 434.856 682.495 434.815 682.326C434.775 682.157 434.768 681.982 434.796 681.811C434.821 681.639 434.879 681.473 434.968 681.324C435.057 681.175 435.175 681.045 435.315 680.942C435.455 680.839 435.614 680.765 435.783 680.724C435.952 680.684 436.127 680.677 436.299 680.705L470.313 685.949C470.485 685.973 470.65 686.031 470.8 686.12C470.949 686.21 471.079 686.327 471.182 686.467C471.285 686.607 471.359 686.767 471.399 686.935C471.44 687.104 471.446 687.28 471.418 687.451C471.358 687.766 471.189 688.05 470.94 688.252C470.691 688.455 470.378 688.562 470.058 688.557Z" fill="#00598E"/>
<path d="M458.748 692.667L435.023 689.039C434.851 689.015 434.685 688.956 434.536 688.867C434.387 688.778 434.257 688.66 434.154 688.52C434.051 688.38 433.977 688.221 433.936 688.052C433.896 687.883 433.889 687.708 433.918 687.536C433.973 687.192 434.162 686.884 434.443 686.677C434.724 686.47 435.075 686.382 435.42 686.431L459.145 690.059C459.317 690.083 459.482 690.142 459.632 690.231C459.781 690.32 459.911 690.438 460.014 690.578C460.117 690.718 460.191 690.877 460.231 691.046C460.272 691.215 460.278 691.39 460.25 691.561C460.226 691.733 460.168 691.899 460.079 692.048C459.99 692.197 459.872 692.327 459.732 692.43C459.592 692.533 459.433 692.607 459.264 692.648C459.095 692.689 458.919 692.695 458.748 692.667Z" fill="#00598E"/>
<path opacity="0.6" d="M423.688 703.173L415.871 701.977C414.896 701.827 413.985 702.497 413.835 703.472L412.639 711.289C412.49 712.264 413.159 713.175 414.134 713.324L421.952 714.52C422.926 714.67 423.838 714 423.987 713.025L425.183 705.208C425.332 704.233 424.663 703.322 423.688 703.173Z" fill="#00598E"/>
<path d="M466.175 713.926L431.99 708.71C431.649 708.648 431.345 708.457 431.14 708.178C430.934 707.899 430.843 707.552 430.885 707.208C430.941 706.864 431.129 706.555 431.41 706.348C431.691 706.142 432.042 706.053 432.387 706.102L466.571 711.346C466.741 711.372 466.903 711.431 467.05 711.52C467.196 711.609 467.324 711.726 467.425 711.864C467.527 712.002 467.6 712.159 467.64 712.326C467.681 712.492 467.689 712.665 467.663 712.834C467.637 713.004 467.577 713.166 467.489 713.313C467.4 713.459 467.283 713.587 467.145 713.688C467.006 713.789 466.85 713.863 466.683 713.903C466.517 713.944 466.344 713.952 466.175 713.926Z" fill="#00598E"/>
<path d="M454.864 718.007L431.083 714.379C430.776 714.287 430.512 714.087 430.341 713.815C430.169 713.544 430.102 713.22 430.15 712.903C430.198 712.586 430.359 712.297 430.603 712.089C430.848 711.881 431.159 711.769 431.48 711.772L455.204 715.4C455.376 715.424 455.542 715.482 455.691 715.571C455.84 715.66 455.97 715.778 456.073 715.918C456.176 716.058 456.25 716.217 456.291 716.386C456.331 716.555 456.338 716.731 456.31 716.902C456.26 717.238 456.082 717.542 455.812 717.749C455.542 717.955 455.202 718.048 454.864 718.007Z" fill="#00598E"/>
<path opacity="0.4" d="M421.578 729.101L413.748 727.914C412.772 727.766 411.861 728.438 411.713 729.414L410.526 737.244C410.378 738.22 411.05 739.131 412.026 739.279L419.856 740.466C420.832 740.613 421.743 739.942 421.891 738.965L423.078 731.136C423.225 730.16 422.554 729.249 421.578 729.101Z" fill="#00598E"/>
<path d="M462.263 739.323L428.249 734.107C427.942 734.015 427.678 733.815 427.507 733.543C427.335 733.272 427.268 732.948 427.316 732.631C427.364 732.314 427.525 732.025 427.769 731.817C428.014 731.609 428.325 731.497 428.646 731.5L462.66 736.715C462.832 736.739 462.997 736.797 463.146 736.886C463.296 736.976 463.426 737.093 463.529 737.233C463.632 737.373 463.706 737.533 463.746 737.702C463.787 737.87 463.793 738.046 463.765 738.217C463.741 738.389 463.683 738.555 463.594 738.704C463.505 738.853 463.387 738.983 463.247 739.086C463.107 739.189 462.948 739.263 462.779 739.304C462.61 739.345 462.434 739.351 462.263 739.323Z" fill="#00598E"/>
<path d="M450.925 743.404L427.2 739.776C426.893 739.684 426.629 739.483 426.458 739.212C426.287 738.941 426.219 738.617 426.267 738.3C426.315 737.983 426.476 737.694 426.721 737.486C426.965 737.278 427.276 737.165 427.597 737.169L451.321 740.797C451.629 740.889 451.892 741.089 452.063 741.361C452.235 741.632 452.303 741.956 452.254 742.273C452.206 742.59 452.045 742.879 451.801 743.087C451.556 743.295 451.245 743.407 450.925 743.404Z" fill="#00598E"/>
<path opacity="0.2" d="M415.924 753.965L408.107 752.769C407.132 752.62 406.221 753.289 406.072 754.264L404.875 762.082C404.726 763.056 405.396 763.968 406.371 764.117L414.188 765.313C415.163 765.462 416.074 764.793 416.223 763.818L417.419 756.001C417.569 755.026 416.899 754.115 415.924 753.965Z" fill="#00598E"/>
<path d="M458.379 764.72L424.365 759.505C424.021 759.449 423.712 759.26 423.505 758.979C423.299 758.698 423.21 758.348 423.259 758.002C423.283 757.83 423.342 757.665 423.431 757.515C423.52 757.366 423.638 757.236 423.778 757.133C423.918 757.03 424.077 756.956 424.246 756.916C424.415 756.875 424.59 756.869 424.762 756.897L458.917 762.112C459.089 762.136 459.255 762.195 459.404 762.284C459.553 762.373 459.683 762.491 459.786 762.631C459.889 762.771 459.963 762.93 460.004 763.099C460.045 763.268 460.051 763.443 460.023 763.615C460.001 763.802 459.939 763.982 459.841 764.142C459.743 764.303 459.611 764.441 459.455 764.546C459.299 764.651 459.122 764.721 458.936 764.751C458.75 764.781 458.56 764.77 458.379 764.72Z" fill="#00598E"/>
<path d="M447.097 768.802L423.373 765.173C423.201 765.149 423.035 765.091 422.886 765.002C422.737 764.913 422.607 764.795 422.504 764.655C422.401 764.515 422.327 764.356 422.286 764.187C422.245 764.018 422.239 763.843 422.267 763.671C422.291 763.499 422.35 763.334 422.439 763.184C422.528 763.035 422.646 762.905 422.786 762.802C422.926 762.699 423.085 762.625 423.254 762.585C423.423 762.544 423.598 762.538 423.769 762.566L447.494 766.194C447.839 766.25 448.147 766.438 448.354 766.719C448.56 767 448.649 767.351 448.6 767.696C448.576 767.868 448.517 768.034 448.428 768.183C448.339 768.332 448.221 768.462 448.081 768.565C447.941 768.668 447.782 768.742 447.613 768.783C447.444 768.823 447.269 768.83 447.097 768.802Z" fill="#00598E"/>
<path opacity="0.1" d="M412.043 779.39L404.226 778.194C403.251 778.045 402.34 778.714 402.191 779.689L400.995 787.506C400.845 788.481 401.515 789.392 402.49 789.541L410.307 790.738C411.282 790.887 412.193 790.217 412.342 789.243L413.538 781.425C413.688 780.45 413.018 779.539 412.043 779.39Z" fill="#00598E"/>
<path d="M454.496 790.117L420.482 784.902C420.138 784.846 419.829 784.657 419.622 784.376C419.416 784.096 419.327 783.745 419.377 783.4C419.401 783.227 419.459 783.062 419.548 782.913C419.637 782.763 419.755 782.634 419.895 782.531C420.035 782.428 420.194 782.354 420.363 782.313C420.532 782.272 420.707 782.266 420.879 782.294L455.035 787.51C455.207 787.534 455.372 787.592 455.521 787.681C455.671 787.77 455.801 787.888 455.904 788.028C456.007 788.168 456.081 788.327 456.121 788.496C456.162 788.665 456.168 788.84 456.14 789.012C456.118 789.199 456.056 789.379 455.958 789.54C455.86 789.7 455.729 789.838 455.573 789.943C455.416 790.048 455.239 790.118 455.053 790.148C454.868 790.178 454.677 790.168 454.496 790.117Z" fill="#00598E"/>
<path d="M443.215 794.199L419.462 790.571C419.293 790.543 419.13 790.483 418.984 790.392C418.838 790.302 418.712 790.183 418.611 790.044C418.511 789.904 418.44 789.746 418.401 789.579C418.362 789.411 418.357 789.238 418.385 789.069C418.405 788.895 418.461 788.727 418.549 788.576C418.637 788.425 418.755 788.293 418.896 788.189C419.037 788.086 419.198 788.012 419.368 787.973C419.539 787.934 419.715 787.931 419.887 787.963L443.612 791.591C443.803 791.593 443.991 791.636 444.164 791.717C444.337 791.797 444.49 791.915 444.614 792.06C444.738 792.205 444.829 792.375 444.881 792.559C444.933 792.742 444.945 792.935 444.917 793.124C444.888 793.312 444.819 793.493 444.715 793.652C444.61 793.812 444.473 793.948 444.311 794.05C444.15 794.152 443.969 794.218 443.78 794.243C443.59 794.269 443.398 794.254 443.215 794.199Z" fill="#00598E"/>
<g opacity="0.1">
<path d="M972.926 724.923L544.463 659.361C542.746 659.1 540.995 659.529 539.593 660.554C538.191 661.579 537.252 663.117 536.979 664.832L535.165 676.623L534.825 678.891L532.388 694.793L532.047 697.06L529.61 712.933L529.27 715.173L526.832 731.074L526.492 733.314L524.054 749.215L523.714 751.483L521.276 767.356L520.936 769.624L518.498 785.497L518.158 787.764L515.721 803.638L515.381 805.905L512.943 821.778L512.603 824.046L510.817 835.838C510.684 836.688 510.72 837.557 510.923 838.394C511.126 839.23 511.492 840.019 512 840.714C512.508 841.409 513.149 841.997 513.884 842.444C514.62 842.892 515.437 843.189 516.288 843.321L944.666 908.883C946.38 909.135 948.123 908.698 949.515 907.667C950.907 906.636 951.834 905.096 952.093 903.384L953.907 891.592L954.247 889.325L956.685 873.452L957.025 871.184L959.462 855.282L959.803 853.043L962.24 837.17L962.58 834.902L965.018 819.029L965.358 816.761L967.796 800.86L968.136 798.621L970.574 782.719L970.914 780.48L973.352 764.607L973.692 762.339L976.129 746.437L976.469 744.17L978.284 732.378C978.546 730.681 978.132 728.949 977.13 727.555C976.128 726.16 974.618 725.215 972.926 724.923ZM949.967 903.044C949.792 904.157 949.185 905.157 948.277 905.826C947.37 906.494 946.235 906.778 945.12 906.615L516.769 841.053C515.648 840.878 514.641 840.268 513.967 839.355C513.293 838.443 513.007 837.301 513.17 836.178L514.984 824.386L951.753 891.252L949.967 903.044ZM952.121 888.871L515.324 822.034L517.761 806.132L954.53 872.998L952.121 888.871ZM954.956 870.73L518.102 804.006L520.539 788.105L957.308 854.942L954.956 870.73ZM957.79 852.59L520.993 785.724L523.43 769.85L960.199 836.688L957.79 852.59ZM960.625 834.449L523.827 767.583L526.265 751.709L963.034 818.576L960.625 834.449ZM963.459 816.308L526.662 749.442L529.1 733.54L965.868 800.406L963.459 816.308ZM966.294 798.139L529.496 731.301L531.934 715.428L968.703 782.265L966.294 798.139ZM969.128 779.998L531.991 713.274L534.428 697.4L971.197 764.238L969.128 779.998ZM971.963 761.885L534.769 695.133L537.206 679.231L973.975 746.097L971.963 761.885ZM537.972 676.85L539.786 665.087C539.869 664.534 540.06 664.003 540.349 663.524C540.637 663.045 541.018 662.627 541.468 662.296C541.918 661.964 542.43 661.724 542.973 661.59C543.516 661.456 544.08 661.431 544.633 661.516L972.473 727.191C973.585 727.366 974.582 727.974 975.246 728.882C975.91 729.791 976.187 730.926 976.016 732.038L974.202 743.83L537.972 676.85Z" fill="#00598E"/>
</g>
<g opacity="0.1">
<path d="M1018.68 419.761L288.735 308.025C287.765 307.876 286.775 307.92 285.822 308.154C284.869 308.389 283.972 308.809 283.182 309.391C282.392 309.973 281.725 310.705 281.218 311.546C280.712 312.386 280.376 313.318 280.231 314.289L239.329 581.498C239.036 583.451 239.527 585.441 240.695 587.034C241.863 588.627 243.614 589.694 245.565 590.001L975.535 701.737C977.489 702.031 979.479 701.54 981.072 700.372C982.665 699.203 983.731 697.453 984.039 695.501L1024.94 428.264C1025.09 427.294 1025.05 426.305 1024.81 425.352C1024.58 424.399 1024.16 423.502 1023.57 422.712C1022.99 421.922 1022.26 421.254 1021.42 420.748C1020.58 420.242 1019.65 419.906 1018.68 419.761ZM423.43 458.168L474.111 465.906L469.689 494.705L418.923 486.939L423.43 458.168ZM416.769 486.513L365.89 478.889L370.312 450.062L421.078 457.828L416.769 486.513ZM476.436 466.303L527.23 474.07L522.808 502.897L472.042 495.13L476.436 466.303ZM739.704 504.286L688.938 496.519L693.332 467.692L744.126 475.459L739.704 504.286ZM746.366 475.941L797.16 483.707L792.738 512.534L741.972 504.768L746.366 475.941ZM582.503 482.687L633.297 490.453L628.875 519.28L578.024 511.259L582.503 482.687ZM575.842 511.032L525.076 503.265L529.384 474.41L580.178 482.177L575.842 511.032ZM635.536 490.68L686.189 498.418L681.767 527.245L631.001 519.479L635.536 490.68ZM688.57 498.787L739.364 506.553L734.942 535.38L684.176 527.614L688.57 498.787ZM686.671 496.179L635.905 488.412L640.298 459.586L691.093 467.38L686.671 496.179ZM633.637 488.072L582.871 480.306L587.265 451.479L638.002 459.217L633.637 488.072ZM580.519 480.079L529.753 472.284L534.146 443.23L584.94 450.997L580.519 480.079ZM527.457 471.802L476.691 464.036L481.084 435.209L531.878 442.975L527.457 471.802ZM522.354 505.164L517.961 533.935L467.195 526.168L471.617 497.341L522.354 505.164ZM524.622 505.505L575.388 513.271L570.966 542.098L520.2 534.331L524.622 505.505ZM577.656 513.611L628.422 521.378L624 550.205L573.262 542.438L577.656 513.611ZM630.689 521.718L681.455 529.513L677.033 558.311L626.267 550.545L630.689 521.718ZM683.723 529.853L734.489 537.619L730.067 566.446L679.301 558.68L683.723 529.853ZM736.756 537.96L787.522 545.726L783.101 574.553L732.335 566.787L736.756 537.96ZM737.097 535.72L741.49 506.893L792.284 514.66L787.863 543.487L737.097 535.72ZM794.524 515L845.318 522.767L840.896 551.594L790.13 543.827L794.524 515ZM847.557 523.107L898.352 530.902L893.93 559.7L843.164 551.934L847.557 523.107ZM847.926 520.868L852.319 492.041L903.142 499.921L898.777 528.634L847.926 520.868ZM845.658 520.527L794.892 512.733L799.286 483.906L850.08 491.701L845.658 520.527ZM799.569 481.666L803.991 452.839L854.757 460.606L850.59 489.433L799.569 481.666ZM797.33 481.326L746.564 473.531L750.957 444.733L801.723 452.499L797.33 481.326ZM744.296 473.191L693.502 465.425L697.924 436.598L748.69 444.364L744.296 473.191ZM691.263 465.085L640.553 457.403L644.975 428.576L695.741 436.343L691.263 465.085ZM638.229 456.949L587.548 449.183L591.942 420.356L642.708 428.151L638.229 456.949ZM585.28 448.899L534.515 441.133L538.795 412.249L589.816 420.016L585.28 448.899ZM532.247 440.793L481.453 433.026L485.874 404.199L536.64 412.051L532.247 440.793ZM479.27 432.601L428.504 424.834L432.898 396.008L483.664 403.802L479.27 432.601ZM478.93 434.869L474.508 463.696L423.742 455.929L428.136 427.102L478.93 434.869ZM421.474 455.589L370.708 447.794L375.102 418.967L425.896 426.762L421.474 455.589ZM368.441 447.454L317.703 439.687L322.097 410.86L372.891 418.627L368.441 447.454ZM368.101 449.721L363.679 478.548L312.913 470.782L317.335 441.955L368.101 449.721ZM363.339 480.901L358.917 509.728L308.151 501.961L312.573 473.134L363.339 480.901ZM365.606 481.27L416.372 489.036L411.951 517.863L361.185 510.068L365.606 481.27ZM418.64 489.376L469.349 497.086L464.927 525.913L414.076 518.09L418.64 489.376ZM464.587 528.266L460.165 557.093L409.399 549.298L413.821 520.471L464.587 528.266ZM466.855 528.606L517.621 536.372L513.284 565.114L462.49 557.348L466.855 528.606ZM519.888 536.712L570.654 544.479L566.233 573.306L515.467 565.539L519.888 536.712ZM572.809 544.706L623.83 552.472L619.408 581.299L568.5 573.618L572.809 544.706ZM625.842 552.812L676.608 560.579L672.186 589.406L621.42 581.639L625.842 552.812ZM678.876 560.919L729.642 568.714L725.22 597.513L674.454 589.746L678.876 560.919ZM731.91 569.054L782.676 576.821L778.254 605.648L727.488 597.881L731.91 569.054ZM784.943 577.161L835.822 584.956L831.401 613.783L780.635 606.016L784.943 577.161ZM785.283 574.893L789.705 546.095L840.584 553.776L836.163 582.603L785.283 574.893ZM842.739 554.201L893.505 561.968L889.083 590.795L838.317 583.028L842.739 554.201ZM895.942 562.28L946.708 570.046L942.286 598.873L891.52 591.107L895.942 562.28ZM896.282 560.04L900.676 531.213L951.47 538.98L946.963 567.949L896.282 560.04ZM901.044 528.861L905.438 500.034L956.232 507.8L951.754 536.769L901.044 528.861ZM905.778 497.681L910.115 469.081L960.881 476.848L956.516 505.59L905.778 497.681ZM903.539 497.313L852.744 489.546L857.166 460.719L907.876 468.741L903.539 497.313ZM857.506 458.48L861.928 429.88L912.638 437.561L908.244 466.388L857.506 458.48ZM855.267 458.112L804.473 450.345L808.895 421.518L859.661 429.313L855.267 458.112ZM802.234 450.005L751.383 442.465L755.804 413.638L806.57 421.405L802.234 450.005ZM749.2 441.898L698.406 434.132L702.827 405.305L753.593 413.071L749.2 441.898ZM696.166 433.763L645.315 426.223L649.737 397.396L700.503 405.163L696.166 433.763ZM643.133 425.657L592.338 417.89L596.704 389.375L647.47 397.141L643.133 425.657ZM590.042 417.72L539.248 409.925L543.67 381.126L594.436 388.893L590.042 417.72ZM537.009 409.585L486.215 401.818L490.608 373.048L541.402 380.871L537.009 409.585ZM483.975 401.478L433.181 393.712L437.603 364.885L488.369 372.651L483.975 401.478ZM431.083 393.4L380.062 385.633L384.484 356.806L435.25 364.601L431.083 393.4ZM430.715 395.667L426.321 424.494L375.555 416.728L379.949 387.901L430.715 395.667ZM373.288 416.388L322.522 408.593L326.915 379.794L377.681 387.561L373.288 416.388ZM320.254 408.253L269.488 400.486L273.882 371.659L324.676 379.426L320.254 408.253ZM319.914 410.52L315.492 439.347L264.726 431.581L269.12 402.754L319.914 410.52ZM315.152 441.7L310.73 470.527L259.964 462.76L264.386 433.933L315.152 441.7ZM310.39 472.879L305.968 501.706L255.202 493.94L259.624 465.113L310.39 472.879ZM305.628 504.059L301.235 532.857L250.44 525.091L254.862 496.264L305.628 504.059ZM307.896 504.399L358.662 512.166L354.268 540.993L303.474 533.226L307.896 504.399ZM360.929 512.506L411.695 520.272L407.274 549.099L356.508 541.333L360.929 512.506ZM406.933 551.367L402.54 580.194L351.717 572.144L356.139 543.317L406.933 551.367ZM409.201 551.707L459.967 559.474L455.574 588.3L404.779 580.534L409.201 551.707ZM462.093 559.445L512.859 567.24L508.465 596.039L457.671 588.272L462.093 559.445ZM515.126 567.58L565.892 575.347L561.471 604.259L510.676 596.492L515.126 567.58ZM568.16 575.687L618.926 583.453L614.533 612.28L563.738 604.514L568.16 575.687ZM621.194 583.822L672.016 591.673L667.623 620.5L616.829 612.706L621.194 583.822ZM674.227 591.929L724.993 599.695L720.6 628.522L669.805 620.756L674.227 591.929ZM727.261 600.035L778.027 607.802L773.633 636.629L722.839 628.862L727.261 600.035ZM780.295 608.17L831.06 616.135L826.667 644.962L775.873 637.196L780.295 608.17ZM833.328 616.277L884.094 624.044L879.701 652.984L828.906 645.217L833.328 616.277ZM833.668 614.009L838.09 585.182L888.856 592.977L884.434 621.804L833.668 614.009ZM891.124 593.459L941.89 601.226L937.468 630.053L886.702 622.286L891.124 593.459ZM944.129 601.509L994.895 609.276L990.473 638.103L939.735 630.308L944.129 601.509ZM944.469 599.27L948.891 570.443L999.657 578.21L995.15 607.037L944.469 599.27ZM949.231 568.09L953.625 539.264L1004.42 547.03L999.997 575.857L949.231 568.09ZM953.993 536.911L958.301 508.424L1009.32 516.049L1004.93 544.876L953.993 536.911ZM958.727 505.731L963.177 477.245L1013.94 485.011L1009.55 513.838L958.727 505.731ZM963.489 474.552L967.939 446.065L1018.7 453.832L1014.31 482.658L963.489 474.552ZM961.249 474.212L910.455 466.445L914.877 437.618L965.643 445.385L961.249 474.212ZM915.217 435.351L919.639 406.552L970.405 414.318L965.983 443.145L915.217 435.351ZM912.949 435.01L862.183 427.244L866.605 398.417L917.371 406.183L912.949 435.01ZM859.916 426.904L809.15 419.137L813.742 390.679L864.508 398.445L859.916 426.904ZM806.882 418.797L756.116 411.002L760.538 382.204L811.304 389.97L806.882 418.797ZM753.849 410.662L703.196 403.264L707.618 374.437L758.384 382.204L753.849 410.662ZM700.815 402.555L650.077 395.044L654.499 366.217L705.265 373.983L700.815 402.555ZM647.781 394.42L597.015 386.654L601.466 358.195L652.175 365.99L647.781 394.42ZM594.776 386.314L543.982 378.547L548.404 349.72L599.17 357.487L594.776 386.314ZM541.742 378.207L490.948 370.412L495.37 341.613L546.164 349.692L541.742 378.207ZM488.681 370.072L437.915 362.305L442.421 333.847L493.187 341.613L488.681 370.072ZM435.675 361.965L384.881 354.199L389.303 325.372L440.069 333.138L435.675 361.965ZM382.642 353.858L331.876 346.432L336.298 317.634L387.064 325.4L382.642 353.858ZM382.273 356.098L377.88 384.925L327.085 377.158L331.507 348.331L382.273 356.098ZM324.846 376.818L274.08 369.533L278.502 340.706L329.268 348.473L324.846 376.818ZM249.959 527.075L300.696 534.842L296.303 563.669L245.508 555.902L249.959 527.075ZM302.992 535.182L353.758 542.948L349.365 571.775L298.57 564.009L302.992 535.182ZM348.883 574.043L344.489 602.87L293.723 595.103L298.117 566.276L348.883 574.043ZM351.15 574.383L402.03 582.121L397.636 610.948L346.87 603.182L351.15 574.383ZM404.184 582.518L454.95 590.285L450.556 619.112L399.904 611.317L404.184 582.518ZM457.331 590.625L508.097 598.391L503.703 627.218L452.909 619.452L457.331 590.625ZM510.45 598.731L561.216 606.526L556.822 635.325L505.971 627.473L510.45 598.731ZM563.483 606.866L614.249 614.633L609.657 643.46L558.891 635.693L563.483 606.866ZM616.517 614.973L667.283 622.74L662.889 651.567L612.095 643.8L616.517 614.973ZM669.55 623.08L720.203 630.875L715.81 659.673L665.015 651.907L669.55 623.08ZM722.584 631.215L773.35 638.981L768.957 667.808L718.162 660.042L722.584 631.215ZM775.618 639.322L826.384 647.088L821.99 675.915L771.224 668.148L775.618 639.322ZM828.651 647.457L879.417 655.223L874.939 684.163L824.144 676.369L828.651 647.457ZM881.685 655.563L932.451 663.33L928.057 692.157L877.263 684.39L881.685 655.563ZM882.025 653.296L886.447 624.469L937.213 632.264L932.791 661.062L882.025 653.296ZM939.48 632.604L990.246 640.37L985.853 669.197L934.973 661.487L939.48 632.604ZM1022.76 427.924L1019.04 451.734L968.279 443.967L972.701 415.14L1018.34 422.113C1019.67 422.324 1020.88 423.049 1021.69 424.135C1022.5 425.221 1022.85 426.581 1022.67 427.924H1022.76ZM288.621 310.292L334.257 317.265L329.863 346.092L278.842 338.354L282.47 314.657C282.571 313.981 282.804 313.331 283.156 312.745C283.509 312.159 283.974 311.648 284.524 311.242C285.075 310.837 285.7 310.544 286.364 310.381C287.029 310.218 287.719 310.188 288.394 310.292H288.621ZM241.795 581.838L245.423 558.141L296.189 565.936L291.796 594.735L245.905 587.79C244.542 587.574 243.32 586.826 242.507 585.71C241.694 584.594 241.356 583.202 241.568 581.838H241.795ZM975.875 699.498L930.211 692.497L934.633 663.67L985.399 671.436L981.771 695.161C981.561 696.517 980.823 697.734 979.718 698.547C978.614 699.36 977.232 699.702 975.875 699.498Z" fill="#00598E"/>
</g>
<path opacity="0.5" d="M994.583 611.543L981.771 695.104C981.674 695.751 981.451 696.372 981.113 696.932C980.775 697.492 980.33 697.979 979.803 698.367C979.276 698.754 978.678 699.033 978.043 699.188C977.408 699.344 976.748 699.372 976.102 699.271L245.735 587.478C245.091 587.378 244.473 587.152 243.916 586.813C243.36 586.474 242.875 586.028 242.491 585.502C242.107 584.975 241.83 584.378 241.676 583.744C241.523 583.111 241.496 582.453 241.597 581.809L243.298 570.641C243.298 570.641 277.623 542.977 299.109 546.265C324.478 550.148 329.041 564.547 351.717 567.949C374.393 571.35 399.224 518.912 419.746 522.03C430.828 523.73 433.663 532.262 439.077 540.085C441.4 543.682 444.481 546.727 448.104 549.009C451.727 551.29 455.805 552.753 460.052 553.294L460.903 553.436C488.681 557.688 526.266 410.237 564.475 416.076C581.482 418.655 588.2 451.195 593.274 487.137C599.708 532.489 603.336 583.51 621.052 586.089C652.742 590.936 663.57 526.565 692.992 531.185C711.501 534.019 718.247 568.317 733.837 595.5C743.049 611.572 755.379 625.177 775.107 628.182C793.05 631.016 805.04 626.765 814.365 620.217C832.648 607.433 840.811 585.607 863.657 589.037C877.206 591.106 882.138 601.537 887.184 611.373C891.577 619.877 896.056 628.097 906.487 629.684C918.76 631.583 929.163 614.009 940.302 598.504C949.401 585.693 958.897 574.184 970.178 575.828C981.459 577.472 988.546 591.447 991.975 601.339C993.045 604.686 993.916 608.093 994.583 611.543Z" fill="#00598E"/>
<path opacity="0.5" d="M1012.16 496.718L981.771 695.133C981.674 695.78 981.451 696.401 981.113 696.961C980.775 697.521 980.33 698.008 979.803 698.395C979.276 698.783 978.678 699.062 978.043 699.217C977.408 699.372 976.748 699.4 976.102 699.3L245.735 587.479C245.091 587.378 244.473 587.152 243.916 586.813C243.36 586.474 242.875 586.028 242.491 585.502C242.107 584.975 241.83 584.378 241.676 583.745C241.523 583.111 241.496 582.454 241.597 581.81L243.298 570.642C273.627 575.29 289.812 552.586 310.164 555.704C330.515 558.822 341.06 573.023 360.108 575.942C379.155 578.862 408.549 534.275 429.383 537.478C432.65 537.952 435.842 538.848 438.878 540.142C446.9 543.487 452.427 548.873 459.854 553.351C465.698 556.894 472.195 559.227 478.958 560.211C503.363 563.924 552.202 475.601 580.519 479.937C585.42 480.823 589.86 483.389 593.075 487.194C609.799 505.42 614.108 550.998 637.691 554.598C666.291 558.992 681.597 512.478 709.347 516.701C737.097 520.924 745.26 568.771 777.375 573.675C809.49 578.578 844.326 490.822 877.688 495.924C911.05 501.026 920.574 546.123 949.571 550.545C981.403 555.42 1012.16 496.718 1012.16 496.718Z" fill="#00598E"/>
<path d="M997.985 588.952L981.715 695.105C981.618 695.751 981.394 696.372 981.056 696.932C980.719 697.492 980.273 697.98 979.747 698.367C979.22 698.754 978.621 699.033 977.986 699.189C977.351 699.344 976.692 699.372 976.046 699.271L245.735 587.478C245.091 587.378 244.473 587.152 243.916 586.813C243.36 586.474 242.875 586.028 242.491 585.502C242.107 584.975 241.83 584.378 241.676 583.745C241.523 583.111 241.496 582.453 241.597 581.809L242.419 576.339C243.468 575.347 260.673 559.105 278.134 561.769C296.189 564.604 296.246 580.704 321.417 584.446C346.587 588.187 353.928 568.374 389.643 573.844C425.358 579.315 425.244 604.287 462.178 609.956C499.112 615.625 506.736 585.664 533.041 589.689C559.345 593.714 557.502 608.992 572.412 611.26C587.321 613.528 595.995 590.171 614.334 592.977C632.674 595.784 646.704 634.219 667.368 637.394C681.881 639.605 707.533 610.863 733.724 595.443C744.778 588.924 755.975 584.786 766.405 586.401C787.976 589.689 800.561 606.526 814.252 620.16C822.755 628.664 831.911 636.034 843.873 637.876C860.88 640.484 873.947 625.007 887.07 611.402C897.728 600.319 908.471 590.455 921.538 592.439C928.073 593.27 934.397 595.308 940.189 598.448C951.527 604.797 954.503 613.357 968.052 615.455C984.351 618.034 997.985 588.952 997.985 588.952Z" fill="#00598E"/>
<path d="M332.017 299.408L292.787 293.398C291.88 293.26 291.009 292.944 290.225 292.469C289.44 291.993 288.757 291.368 288.215 290.628C287.672 289.888 287.281 289.048 287.064 288.157C286.846 287.266 286.807 286.34 286.948 285.433C287.228 283.6 288.224 281.952 289.717 280.852C291.21 279.752 293.079 279.29 294.913 279.566L334.114 285.575C335.944 285.862 337.588 286.859 338.686 288.351C339.785 289.842 340.251 291.707 339.982 293.54C339.695 295.37 338.698 297.013 337.206 298.112C335.715 299.211 333.85 299.676 332.017 299.408Z" fill="#00598E"/>
<path d="M353.672 291.499H354.296L393.525 297.508C394.083 297.58 394.622 297.762 395.108 298.044C395.595 298.327 396.021 298.703 396.36 299.152C397.003 300.046 397.277 301.152 397.125 302.242C396.965 303.221 396.466 304.113 395.714 304.761C394.963 305.409 394.007 305.771 393.015 305.785H392.363L353.162 299.776C352.601 299.714 352.059 299.536 351.571 299.253C351.083 298.97 350.659 298.588 350.327 298.132C349.869 297.515 349.592 296.782 349.527 296.016C349.462 295.251 349.612 294.482 349.959 293.796C350.306 293.111 350.837 292.535 351.493 292.134C352.149 291.734 352.904 291.524 353.672 291.528M353.672 288.693C351.883 288.647 350.145 289.29 348.817 290.49C347.49 291.69 346.674 293.354 346.539 295.139C346.405 296.923 346.961 298.691 348.094 300.077C349.226 301.462 350.848 302.359 352.623 302.582L391.825 308.591C392.183 308.619 392.543 308.619 392.902 308.591C394.661 308.582 396.352 307.91 397.638 306.71C398.925 305.511 399.712 303.871 399.845 302.116C399.977 300.362 399.444 298.623 398.352 297.244C397.26 295.864 395.688 294.947 393.95 294.674L354.721 288.693C354.372 288.665 354.021 288.665 353.672 288.693Z" fill="#00598E"/>
<path d="M413.481 300.655H414.076L453.277 306.664C454.304 306.835 455.23 307.383 455.872 308.202C456.515 309.02 456.828 310.05 456.75 311.088C456.672 312.125 456.208 313.096 455.45 313.809C454.692 314.522 453.694 314.926 452.654 314.941H452.03L412.801 308.932C412.242 308.862 411.703 308.68 411.216 308.398C410.729 308.115 410.304 307.738 409.966 307.288C409.644 306.847 409.414 306.347 409.287 305.817C409.161 305.286 409.141 304.736 409.229 304.198C409.383 303.224 409.878 302.336 410.626 301.692C411.373 301.049 412.324 300.691 413.311 300.683M413.311 297.849C411.522 297.803 409.784 298.446 408.456 299.646C407.128 300.846 406.313 302.51 406.178 304.294C406.043 306.079 406.6 307.847 407.732 309.232C408.865 310.618 410.486 311.515 412.262 311.738L451.492 317.747C451.841 317.775 452.191 317.775 452.54 317.747C454.299 317.737 455.99 317.066 457.277 315.866C458.563 314.666 459.351 313.026 459.483 311.272C459.615 309.518 459.082 307.778 457.99 306.399C456.898 305.02 455.327 304.103 453.589 303.83L414.388 297.849C414.029 297.821 413.669 297.821 413.311 297.849Z" fill="#00598E"/>
<path d="M1024.23 399.041L1024.71 395.979L1022.44 395.441C1022.39 394.934 1022.27 394.438 1022.08 393.967L1023.83 392.436L1022.02 389.942L1020.01 391.161C1019.61 390.847 1019.19 390.581 1018.73 390.367L1018.87 388.043L1015.81 387.589L1015.27 389.857C1014.78 389.91 1014.29 390.024 1013.83 390.197L1012.27 388.439L1009.77 390.282L1010.99 392.266C1010.68 392.663 1010.42 393.102 1010.23 393.57L1007.9 393.4L1007.42 396.461L1009.69 397.028C1009.74 397.525 1009.87 398.012 1010.06 398.474L1008.3 400.004L1010.14 402.499L1012.13 401.28C1012.52 401.587 1012.95 401.853 1013.4 402.073L1013.26 404.398L1016.32 404.851L1016.86 402.612C1017.36 402.533 1017.86 402.41 1018.33 402.243L1019.87 404.001L1022.36 402.158L1021.14 400.174C1021.45 399.783 1021.71 399.355 1021.91 398.899L1024.23 399.041ZM1015.53 399.777C1014.83 399.668 1014.17 399.353 1013.65 398.871C1013.12 398.389 1012.75 397.763 1012.58 397.071C1012.42 396.379 1012.46 395.653 1012.7 394.984C1012.94 394.316 1013.38 393.734 1013.96 393.314C1014.53 392.894 1015.22 392.654 1015.93 392.624C1016.64 392.594 1017.35 392.775 1017.95 393.145C1018.56 393.516 1019.05 394.058 1019.35 394.704C1019.65 395.349 1019.75 396.069 1019.64 396.773C1019.57 397.24 1019.4 397.688 1019.16 398.092C1018.91 398.496 1018.59 398.847 1018.21 399.126C1017.82 399.405 1017.39 399.607 1016.93 399.718C1016.47 399.83 1016 399.85 1015.53 399.777Z" fill="#00598E"/>
<path opacity="0.2" d="M583.371 736.338L575.021 735.061L565.846 795.021L574.196 796.299L583.371 736.338Z" fill="#00598E"/>
<path d="M581.994 745.348L573.645 744.07L569.327 772.285L577.677 773.563L581.994 745.348Z" fill="#00598E"/>
<path opacity="0.2" d="M562.316 748.569L553.967 747.291L544.792 807.252L553.141 808.529L562.316 748.569Z" fill="#00598E"/>
<path d="M551.472 763.087L547.15 791.33L555.5 792.607L559.822 764.364L551.472 763.087Z" fill="#00598E"/>
<path opacity="0.2" d="M547.231 734.582L538.869 733.315L529.77 793.367L538.133 794.634L547.231 734.582Z" fill="#00598E"/>
<path d="M541.811 756.767L533.461 755.49L529.139 783.733L537.489 785.011L541.811 756.767Z" fill="#00598E"/>
<path opacity="0.2" d="M600.338 751.035L591.988 749.757L582.813 809.718L591.163 810.995L600.338 751.035Z" fill="#00598E"/>
<path d="M598.99 760.045L590.641 758.767L586.319 787.01L594.668 788.288L598.99 760.045Z" fill="#00598E"/>
<path opacity="0.2" d="M621.811 736.173L613.461 734.896L604.286 794.856L612.635 796.134L621.811 736.173Z" fill="#00598E"/>
<path d="M620.773 742.936L612.424 741.658L608.102 769.901L616.452 771.179L620.773 742.936Z" fill="#00598E"/>
<path opacity="0.2" d="M638.236 754.516L629.887 753.239L620.711 813.199L629.061 814.477L638.236 754.516Z" fill="#00598E"/>
<path d="M637.873 756.785L629.523 755.508L625.202 783.751L633.551 785.028L637.873 756.785Z" fill="#00598E"/>
<path opacity="0.2" d="M661.775 726.037L653.426 724.759L644.251 784.719L652.6 785.997L661.775 726.037Z" fill="#00598E"/>
<path d="M661.463 728.31L653.113 727.032L648.796 755.247L657.145 756.525L661.463 728.31Z" fill="#00598E"/>
<path opacity="0.2" d="M674.781 766.677L666.432 765.399L657.256 825.36L665.606 826.638L674.781 766.677Z" fill="#00598E"/>
<path d="M673.404 775.715L665.055 774.438L660.733 802.681L669.083 803.958L673.404 775.715Z" fill="#00598E"/>
<path opacity="0.2" d="M693.023 773.05L684.674 771.772L675.499 831.733L683.848 833.01L693.023 773.05Z" fill="#00598E"/>
<path d="M689.564 795.646L681.215 794.368L676.893 822.611L685.243 823.889L689.564 795.646Z" fill="#00598E"/>
<path opacity="0.2" d="M717.588 738.241L709.238 736.963L700.063 796.924L708.413 798.202L717.588 738.241Z" fill="#00598E"/>
<path d="M713.762 763.116L705.412 761.838L701.095 790.053L709.444 791.331L713.762 763.116Z" fill="#00598E"/>
<path opacity="0.2" d="M732.297 767.515L723.947 766.238L714.772 826.198L723.122 827.476L732.297 767.515Z" fill="#00598E"/>
<path d="M730.553 778.828L722.203 777.551L717.886 805.766L726.235 807.044L730.553 778.828Z" fill="#00598E"/>
<path opacity="0.2" d="M753.459 754.737L745.109 753.459L735.934 813.419L744.284 814.697L753.459 754.737Z" fill="#00598E"/>
<path d="M754.397 763.942L746.035 762.675L741.749 790.961L750.112 792.228L754.397 763.942Z" fill="#00598E"/>
<path opacity="0.2" d="M776.365 730.671L768.016 729.394L758.84 789.354L767.19 790.632L776.365 730.671Z" fill="#00598E"/>
<path d="M776.336 730.693L767.986 729.416L763.665 757.659L772.014 758.936L776.336 730.693Z" fill="#00598E"/>
<path opacity="0.2" d="M789.338 771.532L780.988 770.254L771.813 830.215L780.163 831.492L789.338 771.532Z" fill="#00598E"/>
<path d="M788.272 778.323L779.922 777.045L775.6 805.288L783.95 806.566L788.272 778.323Z" fill="#00598E"/>
<path opacity="0.2" d="M804.051 800.778L795.701 799.5L786.526 859.461L794.876 860.738L804.051 800.778Z" fill="#00598E"/>
<path d="M803.012 807.541L794.662 806.263L790.34 834.506L798.69 835.784L803.012 807.541Z" fill="#00598E"/>
<path opacity="0.2" d="M827.674 771.915L819.324 770.637L810.149 830.597L818.499 831.875L827.674 771.915Z" fill="#00598E"/>
<path d="M824.242 794.458L815.893 793.18L811.571 821.423L819.92 822.701L824.242 794.458Z" fill="#00598E"/>
<path opacity="0.2" d="M851.65 740.893L843.301 739.615L834.126 799.576L842.475 800.853L851.65 740.893Z" fill="#00598E"/>
<path d="M847.484 767.982L839.135 766.704L834.813 794.947L843.163 796.225L847.484 767.982Z" fill="#00598E"/>
<path opacity="0.2" d="M865.236 777.643L856.887 776.365L847.711 836.326L856.061 837.604L865.236 777.643Z" fill="#00598E"/>
<path d="M866.399 786.713L858.037 785.446L853.751 813.732L862.114 814.999L866.399 786.713Z" fill="#00598E"/>
<path opacity="0.2" d="M882.451 790.504L874.102 789.227L864.926 849.187L873.276 850.465L882.451 790.504Z" fill="#00598E"/>
<path d="M878.68 815.351L870.33 814.073L866.008 842.317L874.358 843.594L878.68 815.351Z" fill="#00598E"/>
<path opacity="0.2" d="M904.1 774.655L895.75 773.377L886.575 833.338L894.924 834.616L904.1 774.655Z" fill="#00598E"/>
<path d="M904.1 774.681L895.75 773.404L891.428 801.647L899.778 802.925L904.1 774.681Z" fill="#00598E"/>
<path opacity="0.2" d="M920.014 796.233L911.664 794.955L902.489 854.916L910.838 856.193L920.014 796.233Z" fill="#00598E"/>
<path d="M919.311 800.749L910.961 799.471L906.639 827.714L914.989 828.992L919.311 800.749Z" fill="#00598E"/>
<path opacity="0.2" d="M940.045 791.015L931.695 789.737L922.52 849.698L930.87 850.975L940.045 791.015Z" fill="#00598E"/>
<path d="M939.682 793.284L931.332 792.006L927.01 820.249L935.36 821.527L939.682 793.284Z" fill="#00598E"/>
<path opacity="0.2" d="M957.604 801.601L949.254 800.324L940.079 860.284L948.428 861.562L957.604 801.601Z" fill="#00598E"/>
<path d="M955.857 830.952L947.494 829.685L943.208 857.971L951.571 859.238L955.857 830.952Z" fill="#00598E"/>
<path d="M654.441 884.88L497.199 860.818L496.453 865.694L653.695 889.755L654.441 884.88Z" fill="#999999" stroke="#263238" stroke-linecap="round" stroke-linejoin="round"/>
<path opacity="0.2" d="M754.386 542.098C754.386 542.098 733.071 553.918 746.648 585.948C760.225 617.978 842.794 670.643 841.122 697.4C841.122 697.4 756.342 644.565 732.787 675.065C732.787 675.065 796.819 737.169 803.48 783.881C810.141 830.594 831.825 851.314 881.939 877.958C932.053 904.603 1041.01 1045.19 1041.01 1045.19L1024.71 809.08L865.98 629.939L787.521 585.211L754.386 542.098Z" fill="black" fill-opacity="0.7"/>
<path d="M1185.06 963.078L1045.32 1054.86H1045.09C1044.96 1054.85 1044.84 1054.81 1044.73 1054.73C1044.63 1054.66 1044.55 1054.55 1044.5 1054.43C1043.87 1052.79 982.138 887.794 967.257 874.925C958.877 867.353 952.772 857.597 949.626 846.75C949.626 846.75 949.626 846.609 949.626 846.524C949.088 844.71 948.833 843.519 948.776 843.207C940.556 826.491 927.946 812.323 912.296 802.22C901.833 795.882 890.784 790.566 879.302 786.347C861.728 779.232 843.644 771.891 830.861 758.314C828.67 755.993 826.67 753.5 824.88 750.859C804.556 721.097 773.178 688.245 762.719 681.499C752.26 674.753 733.013 675.66 732.843 675.66C732.686 675.676 732.529 675.633 732.403 675.538C732.277 675.444 732.191 675.305 732.163 675.149C731.823 672.555 732.058 669.917 732.851 667.424C733.645 664.931 734.978 662.642 736.755 660.722C739.425 657.6 742.743 655.095 746.477 653.382C750.212 651.669 754.274 650.788 758.382 650.801C774.539 650.801 796.79 659.305 808.014 669.991C819.239 680.677 845.203 688.528 848.179 689.435C852.403 686.941 862.352 692.27 866.008 694.566C861.672 679.118 863.429 673.165 864.109 671.663C854.812 659.616 806.399 623.958 780.69 606.073C773.604 601.112 768.275 597.569 765.95 596.18C753.96 589.122 744.04 567.041 745.967 551.622C746.061 549.528 746.618 547.481 747.598 545.628C748.579 543.775 749.958 542.163 751.636 540.907C754.047 539.393 756.872 538.669 759.714 538.838C760.869 538.868 762.018 539.01 763.144 539.263C763.258 539.312 763.363 539.379 763.456 539.462C763.683 539.773 787.748 568.317 796.081 572.795C800.163 574.978 821.875 585.948 842.51 596.152L851.808 600.744C851.751 591.757 852.224 582.775 853.225 573.844C854.018 570.329 859.631 565.341 866.008 562.506C868.985 561.146 874.512 559.19 878.565 561.344C880.124 562.223 883.809 564.49 888.911 567.665L897.415 572.937C899.224 570.156 901.44 567.662 903.991 565.539C906.117 564.292 917.88 562.109 922.075 563.583C925.731 564.916 937.466 572.37 949.881 580.25L955.239 583.623C955.891 582.404 957.421 579.853 958.867 579.286C964.995 577.023 971.665 576.668 978 578.266C982.195 579.797 996.594 590.426 1010.54 600.715C1018.19 606.384 1025.53 611.798 1030.38 615.058C1030.54 615.1 1030.69 615.201 1030.78 615.341C1032.17 616.277 1033.33 617.014 1034.21 617.524C1044.47 623.391 1069.7 755.706 1069.95 757.038C1071.6 765.91 1077.6 775.066 1083.95 784.76C1091.14 794.852 1097.01 805.814 1101.44 817.385C1109.52 840.996 1127.92 875.549 1154.87 917.783C1157.31 921.562 1159.82 925.446 1162.41 929.433C1169.7 940.459 1177.46 951.967 1185.06 963.078Z" fill="white"/>
<path opacity="0.4" d="M873.662 709.674C868.248 713.954 828.961 709.9 824.143 723.109C821.308 730.904 823.406 742.696 830.776 758.257C828.585 755.937 826.585 753.444 824.795 750.802C804.471 721.04 773.093 688.188 762.634 681.442C752.175 674.696 733.013 675.66 732.843 675.66C732.686 675.676 732.529 675.633 732.403 675.538C732.277 675.444 732.191 675.305 732.163 675.149C731.823 672.555 732.058 669.917 732.851 667.424C733.645 664.93 734.978 662.642 736.755 660.722C739.425 657.6 742.743 655.095 746.477 653.382C750.212 651.669 754.274 650.788 758.382 650.801C774.539 650.801 796.79 659.305 808.014 669.991C819.239 680.677 845.203 688.528 848.179 689.435C852.403 686.941 862.352 692.27 866.008 694.566C861.672 679.118 863.429 673.165 864.109 671.663C854.812 659.616 806.399 623.958 780.69 606.073C773.604 601.112 768.275 597.569 765.95 596.18C753.96 589.122 744.04 567.041 745.967 551.622C746.061 549.528 746.618 547.481 747.598 545.628C748.579 543.775 749.958 542.163 751.636 540.907C754.047 539.393 756.872 538.669 759.714 538.838C757.765 539.6 755.962 540.693 754.386 542.069C746.506 548.787 765.298 584.247 775.871 594.054C786.926 604.287 836.643 629.684 854.5 644.82C864.308 653.125 877.176 665.711 877.176 665.711C869.325 679.089 878.934 705.479 873.662 709.674Z" fill="white"/>
<path d="M1056.2 492.919C1056.2 492.664 1056.2 492.607 1056.2 492.721C1056.22 492.75 1056.24 492.784 1056.24 492.82C1056.24 492.855 1056.22 492.89 1056.2 492.919Z" fill="white"/>
<path opacity="0.4" d="M1154.87 917.641C1133.81 897.601 1102.46 866.393 1096.59 852.703C1087.64 831.727 1081.66 812.368 1070.52 798.252C1059.38 784.136 1036.79 633.709 1030.3 633.284C1023.8 632.859 1038.46 692.808 1039.22 695.87C1038.6 693.971 1030.49 668.432 1022.73 639.321C1014.68 609.077 1006.54 607.433 1006.54 607.433C995.743 609.587 995.686 617.269 990.159 617.155C984.632 617.042 965.669 603.578 965.669 603.578C947.273 606.243 878.253 561.798 878.253 561.798C862.55 563.923 858.865 577.642 872.272 590.511C885.679 603.38 905.719 618.969 905.719 618.969C892.794 625.262 845.344 598.646 845.344 598.646L842.51 596.095L851.807 600.687C851.75 591.7 852.224 582.718 853.224 573.787C854.018 570.273 859.63 565.284 866.008 562.449C868.984 561.089 874.511 559.133 878.565 561.287C880.124 562.166 883.808 564.434 888.911 567.608L897.414 572.88C899.223 570.099 901.44 567.605 903.99 565.482C906.116 564.235 917.879 562.053 922.074 563.527C925.731 564.859 937.466 572.314 949.881 580.193L955.238 583.566C955.89 582.348 957.421 579.797 958.866 579.23C964.995 576.967 971.665 576.611 977.999 578.209C982.194 579.74 996.593 590.369 1010.54 600.659C1018.19 606.328 1025.53 611.742 1030.38 615.001C1030.54 615.043 1030.68 615.144 1030.78 615.285C1032.17 616.22 1033.33 616.957 1034.21 617.467C1044.47 623.335 1069.7 755.649 1069.95 756.982C1071.59 765.854 1077.6 775.009 1083.95 784.703C1091.14 794.813 1097.02 805.795 1101.44 817.385C1109.52 840.855 1127.92 875.407 1154.87 917.641Z" fill="white"/>
<path d="M1045.09 1054.29C1045.09 1054.29 982.734 887.624 967.683 874.528C958.417 866.153 951.996 855.094 949.315 842.895C941.037 826.013 928.293 811.721 912.466 801.568C885.567 783.853 844.892 779.261 825.22 750.547C805.549 721.834 774.029 688.188 762.861 680.988C751.693 673.789 732.674 675.093 732.674 675.093C730.718 663.925 743.161 651.481 758.184 651.481C773.207 651.481 795.572 659.333 807.391 670.501C819.211 681.669 848.066 690.172 848.066 690.172C852.658 686.884 866.859 696.011 866.859 696.011C861.19 676.822 864.62 671.635 864.62 671.635C853.48 656.555 777.204 602.274 766.064 595.698C754.925 589.122 744.409 567.495 746.365 551.735C746.413 549.778 746.914 547.858 747.829 546.127C748.744 544.396 750.048 542.9 751.638 541.758C753.228 540.615 755.061 539.857 756.994 539.542C758.926 539.227 760.906 539.365 762.776 539.943C762.776 539.943 787.04 568.799 795.571 573.391C804.103 577.982 871.026 611.458 880.862 615.37C883.593 616.534 886.564 617.024 889.525 616.797C892.485 616.57 895.347 615.633 897.869 614.066" stroke="#263238" stroke-linecap="round" stroke-linejoin="round"/>
<path d="M852.432 601.764C852.432 601.764 852.432 579.938 853.849 574.014C855.266 568.09 871.054 557.886 878.254 561.798C885.454 565.709 938.629 600.687 952.49 602.246" stroke="#263238" stroke-linecap="round" stroke-linejoin="round"/>
<path d="M897.613 573.617C899.496 570.741 901.766 568.137 904.359 565.879C906.315 564.717 917.965 562.563 921.905 563.98C929.785 566.815 976.214 598.845 984.066 600.829" stroke="#263238" stroke-linecap="round" stroke-linejoin="round"/>
<path d="M955.465 584.445C955.465 584.445 957.477 580.42 959.093 579.768C965.075 577.55 971.59 577.204 977.772 578.776C985 581.412 1024.68 612.79 1033.87 617.977C1043.05 623.165 1066.04 739.351 1069.3 757.067C1072.56 774.782 1092.29 792.498 1100.79 817.442C1109.29 842.385 1129.67 880.424 1161.82 929.631C1167.49 938.135 1173.38 947.12 1179.31 955.794" stroke="#263238" stroke-linecap="round" stroke-linejoin="round"/>
<path d="M892.879 647.995C892.879 647.995 895.713 634.701 903.707 628.805C911.7 622.91 922.414 632.263 930.266 633.227" stroke="#263238" stroke-linecap="round" stroke-linejoin="round"/>
<path d="M946.508 626.85C946.508 626.85 950.93 611.572 958.81 608.142C966.689 604.712 978.821 615.03 984.065 615.512" stroke="#263238" stroke-linecap="round" stroke-linejoin="round"/>
<path d="M998.182 613.045C998.182 613.045 1004.08 607.376 1006.54 607.376C1009.01 607.376 1019.33 618.176 1021.57 618.913C1023.81 619.65 1026.47 615.597 1030.3 615.54" stroke="#263238" stroke-linecap="round" stroke-linejoin="round"/>
<path d="M980.238 599.128C984.548 598.808 988.847 599.871 992.512 602.161" stroke="#263238" stroke-linecap="round" stroke-linejoin="round"/>
<path d="M864.761 671.606C864.761 671.606 860.85 661.515 862.805 656.357" stroke="#263238" stroke-linecap="round" stroke-linejoin="round"/>
<path d="M872.443 597.569C872.443 597.569 877.12 603.04 877.375 607.433C877.631 611.827 888.713 617.156 888.713 617.156" stroke="#263238" stroke-linecap="round" stroke-linejoin="round"/>
<path d="M947.473 600.914C947.473 600.914 953.907 598.618 957.337 600.914" stroke="#263238" stroke-linecap="round" stroke-linejoin="round"/>
<path d="M864.762 684.9C864.543 681.658 865.124 678.411 866.453 675.446C867.783 672.48 869.82 669.887 872.387 667.893" stroke="#263238" stroke-linecap="round" stroke-linejoin="round"/>
<path d="M867.057 695.983C867.057 695.983 859.744 702.276 859.744 706.216" stroke="#263238" stroke-linecap="round" stroke-linejoin="round"/>
<path d="M833.383 684.9C842.056 688.131 849.256 701.624 854.5 703.92" stroke="#263238" stroke-linecap="round" stroke-linejoin="round"/>
<path d="M938.459 641.929C943.703 649.469 955.466 704.288 967.314 721.635" stroke="#263238" stroke-linecap="round" stroke-linejoin="round"/>
<path d="M982.449 626.453C983.441 627.105 990.329 648.42 990.329 648.42" stroke="#263238" stroke-linecap="round" stroke-linejoin="round"/>
<path d="M1070.52 761.517C1072.24 772.424 1075.39 783.058 1079.87 793.15" stroke="#263238" stroke-linecap="round" stroke-linejoin="round"/>
<path d="M950.194 846.609C949.315 843.009 945.517 819.398 940.84 811.518" stroke="#263238" stroke-linecap="round" stroke-linejoin="round"/>
<path opacity="0.2" d="M155.822 1215.04C155.822 1215.04 248.057 1091.03 317.616 1068.32C387.175 1045.62 390.604 1014.81 387.77 957.325C384.935 899.841 387.033 841.904 367.928 834.987C348.824 828.071 390.831 753.014 370.763 723.28L239.157 930.028L155.822 1215.04Z" fill="black" fill-opacity="0.7"/>
<path d="M133.459 1249.59L132.07 1249.14L134.054 1250.24L133.459 1249.59ZM357.668 869.172C346.33 863.871 323.824 839.012 321.018 835.895C335.19 812.028 349.193 789.012 354.04 783.485C364.102 772.147 376.376 739.068 371.387 723.081C366.823 708.399 351.886 710.751 349.845 711.148H349.618C349.541 711.16 349.468 711.189 349.404 711.233C349.34 711.277 349.287 711.335 349.25 711.403C348.938 711.942 318.524 763.218 309.085 775.491C304.578 781.33 294.203 794.624 283.574 807.946L280.428 807.464C273.835 806.438 267.11 806.63 260.586 808.031L259.934 808.258C256.56 809.714 253.309 811.439 250.212 813.417L247.973 812.481C243.494 810.611 234.225 807.011 229.832 806.812C224.475 806.529 205.597 815.316 194.315 822.402C186.538 820.04 178.433 818.94 170.307 819.143C161.662 819.511 144.031 826.682 129.859 832.436C123.566 834.987 118.124 837.198 114.949 838.105L112.115 838.956C103.611 841.478 99.0194 842.896 93.1236 854.687C87.0011 866.932 80.3967 912.596 77.222 934.535L76.7969 937.512C75.578 946.015 75.7765 960.925 75.9749 976.826C76.2867 998.935 76.5985 1021.78 73.3104 1030.68C68.8689 1041.89 63.0003 1052.49 55.8499 1062.2C54.9145 1063.53 54.0641 1064.78 53.2705 1065.97C48.8451 1072.88 45.3117 1080.32 42.7545 1088.11C40.3735 1094.4 37.3972 1101.32 34.5061 1107.64C29.1772 1119.35 24.2168 1129.01 24.2168 1129.01C24.2168 1129.01 124.7 1239.87 133.459 1249.59C133.931 1249.77 134.413 1249.92 134.904 1250.04C135.244 1249.48 153.782 1217.79 173.425 1186.52C190.432 1159.54 208.091 1132.87 215.659 1126.74C226.037 1117.84 233.585 1106.09 237.372 1092.96C241.453 1079.83 267.502 1063.65 292.701 1048C320.564 1030.71 349.391 1012.82 350.355 998.028C350.894 990.375 352.651 977.705 354.692 962.994C360.219 923.141 367.079 873.508 357.668 869.172ZM309.935 932.891L297.548 944.938C295.791 935.017 283.744 921.837 281.845 919.824C282.797 915.055 283.413 910.224 283.687 905.368C284.141 899.841 284.623 894.03 285.983 893.095C287.344 892.159 293.608 881.757 303.812 864.75C304.663 876.74 315.15 889.949 316.568 891.848L309.935 932.891Z" fill="white"/>
<path opacity="0.4" d="M162.853 896.071C159.197 928.725 127.195 1009.73 127.195 1009.73L121.526 928.129C121.526 928.129 96.6106 1038.87 89.7795 1042.87C82.9483 1046.87 70.9584 1068.04 64.2689 1084.85C59.7621 1096.19 44.4274 1103.9 34.7617 1107.78C37.5962 1101.46 40.6291 1094.54 43.0101 1088.25C45.5674 1080.46 49.1008 1073.02 53.5261 1066.11C54.3198 1064.92 55.1702 1063.68 56.1055 1062.34C63.256 1052.63 69.1245 1042.04 73.5661 1030.82C76.8541 1021.87 76.4006 999.02 76.2305 976.968C76.0321 961.066 75.8337 946.043 77.0525 937.653L77.4777 934.677C80.6524 912.738 87.2568 867.074 93.3793 854.829C99.2751 843.037 103.924 841.62 112.37 839.097L115.205 838.247C118.38 837.255 123.708 835.044 130.114 832.578C144.287 826.909 161.918 819.653 170.563 819.284C178.644 819.115 186.701 820.234 194.429 822.601C205.767 815.486 224.589 806.727 229.946 807.011C234.339 807.209 243.608 810.809 248.087 812.68C229.265 822.374 197.604 845.73 197.604 845.73C161.804 853.497 162.853 896.071 162.853 896.071Z" fill="white"/>
<path opacity="0.4" d="M226.289 852.703C235.556 846.288 245.16 840.375 255.059 834.988C264.243 830.679 267.191 813.502 260.728 808.655C260.487 808.475 260.204 808.358 259.906 808.315L260.558 808.088C267.082 806.687 273.807 806.495 280.4 807.521C268.523 825.35 259.226 839.013 256.76 841.96C248.597 851.881 226.289 852.703 226.289 852.703Z" fill="white"/>
<path opacity="0.4" d="M273.143 964.581L277.479 966.452C274.843 976.968 273.143 964.581 273.143 964.581Z" fill="white"/>
<path opacity="0.4" d="M357.669 869.172C346.331 863.871 323.825 839.012 321.018 835.895C335.191 812.028 349.193 789.012 354.04 783.485C364.103 772.147 376.376 739.068 371.388 723.081C366.824 708.399 351.886 710.751 349.845 711.148V711.772C349.845 711.772 366.002 713.784 365.974 737.14C365.945 760.497 323.995 806.784 323.995 806.784C323.995 806.784 280.854 887.709 278.019 886.49C275.185 885.272 268.864 940.573 268.864 940.573C268.864 940.573 280.882 950.805 278.019 964.581C277.868 965.261 277.726 965.885 277.594 966.452L296.075 974.417C296.075 974.417 314.612 961.406 324.023 980.539C333.434 999.672 233.546 1068.04 225.694 1078.16C225.694 1078.16 224.589 1116.28 210.019 1121.9C200.58 1125.52 183.942 1161.58 173.426 1186.55C190.433 1159.57 208.092 1132.89 215.66 1126.77C226.038 1117.87 233.585 1106.12 237.372 1092.98C241.454 1079.86 267.503 1063.68 292.702 1048.03C320.565 1030.74 349.392 1012.85 350.356 998.057C350.894 990.403 352.652 977.733 354.692 963.022C360.22 923.141 367.079 873.508 357.669 869.172ZM309.936 932.891L297.549 944.938C295.791 935.017 283.745 921.837 281.846 919.824C282.798 915.055 283.414 910.224 283.688 905.368C284.142 899.841 284.623 894.03 285.984 893.095C287.345 892.159 293.609 881.757 303.813 864.75C304.663 876.74 315.151 889.949 316.568 891.848L309.936 932.891Z" fill="white"/>
<path d="M236.805 853.44C244.529 851.781 251.549 847.771 256.901 841.96C265.405 832.408 299.986 788.36 309.566 775.916C319.147 763.473 349.76 711.772 349.76 711.772C349.76 711.772 366.03 707.945 370.82 723.28C375.61 738.614 364.131 771.126 353.586 783.088C343.042 795.049 289.441 889.835 285.558 892.698C281.675 895.561 284.623 922.404 277.055 928.129" stroke="#263238" stroke-linecap="round" stroke-linejoin="round"/>
<path d="M281.164 920.079C281.164 920.079 296.159 935.783 297.122 946.299L310.501 933.203L317.219 891.734C317.219 891.734 303.982 875.804 304.379 862.709" stroke="#263238" stroke-linecap="round" stroke-linejoin="round"/>
<path d="M320.28 835.979C320.28 835.979 344.969 863.984 357.412 869.738C369.856 875.493 351.743 970.25 349.759 998C347.775 1025.75 245.421 1064.95 236.804 1092.76C233.072 1105.8 225.579 1117.45 215.262 1126.26C198.652 1139.73 134.365 1249.76 134.365 1249.76" stroke="#263238" stroke-linecap="round" stroke-linejoin="round"/>
<path d="M283.942 808.655C283.942 808.655 269.345 805.962 260.728 808.655C252.111 811.348 215.659 837.227 207.156 841.96C198.652 846.694 186.095 847.629 183.232 853.44" stroke="#263238" stroke-linecap="round" stroke-linejoin="round"/>
<path d="M250.24 814.154C250.24 814.154 235.5 807.748 229.831 807.464C224.162 807.181 201.118 818.037 190.602 825.69C182.516 831.619 173.435 836.054 163.787 838.786" stroke="#263238" stroke-linecap="round" stroke-linejoin="round"/>
<path d="M194.345 823.054C186.616 820.639 178.545 819.5 170.45 819.681C157.978 820.22 125.438 835.526 115.233 838.729C105.029 841.932 100.239 842.216 93.8613 854.999C87.4837 867.783 80.4541 917.84 77.5912 937.625C74.7284 957.41 79.8305 1015.32 74.0764 1030.97C68.3224 1046.61 59.4504 1058.32 54.0932 1066.45C43.1803 1082.67 44.3992 1094.8 24.5293 1129.15" stroke="#263238" stroke-linecap="round" stroke-linejoin="round"/>
<path d="M171.243 857.749C158.8 868.775 161.096 889.835 162.74 896.071C164.384 902.307 156.759 927.251 154.236 940.573" stroke="#263238" stroke-linecap="round" stroke-linejoin="round"/>
<path d="M250.24 868.406C227.564 868.888 220.534 884.194 219.061 894.257" stroke="#263238" stroke-linecap="round" stroke-linejoin="round"/>
<path d="M154.492 845.73C147.774 845.248 130.54 855.793 127.195 873.026" stroke="#263238" stroke-linecap="round" stroke-linejoin="round"/>
<path d="M317.219 891.734C317.219 891.734 320.563 882.182 323.908 881.218" stroke="#263238" stroke-linecap="round" stroke-linejoin="round"/>
<path d="M310.501 933.203C308.85 938.82 306.804 944.314 304.379 949.643C301.544 955.312 304.379 964.354 304.379 964.354" stroke="#263238" stroke-linecap="round" stroke-linejoin="round"/>
<path d="M297.124 946.299C296.642 955.879 286.098 966.14 283.943 964.354" stroke="#263238" stroke-linecap="round" stroke-linejoin="round"/>
<path d="M206.985 930.028C206.645 940.573 187.512 1017.61 187.512 1017.61" stroke="#263238" stroke-linecap="round" stroke-linejoin="round"/>
</svg>
